<svg width="20" height="20" viewBox="0 0 20 20" fill="none" xmlns="http://www.w3.org/2000/svg">
<g id="heart (1)" clip-path="url(#clip0_123_1007)">
<path id="Vector" d="M9.99965 19.5515L9.27798 19.0415C8.32798 18.3698 -0.000357012 12.319 -0.000357012 6.7915C-0.0542402 5.24275 0.5072 3.73565 1.56124 2.59962C2.61528 1.4636 4.0762 0.791059 5.62465 0.729004C6.47936 0.737404 7.32024 0.945808 8.07996 1.33753C8.83967 1.72925 9.49711 2.29341 9.99965 2.98484C10.5022 2.29341 11.1596 1.72925 11.9193 1.33753C12.6791 0.945808 13.5199 0.737404 14.3747 0.729004C15.9231 0.791059 17.384 1.4636 18.4381 2.59962C19.4921 3.73565 20.0535 5.24275 19.9997 6.7915C19.9997 12.319 11.6713 18.3698 10.7213 19.0415L9.99965 19.5515ZM5.62465 3.229C4.73962 3.29171 3.91505 3.70099 3.32996 4.36799C2.74488 5.03499 2.44651 5.90585 2.49964 6.7915C2.49964 10.0548 7.38548 14.4665 9.99965 16.4673C12.6138 14.4673 17.4997 10.0548 17.4997 6.7915C17.5528 5.90585 17.2544 5.03499 16.6693 4.36799C16.0843 3.70099 15.2597 3.29171 14.3747 3.229C13.4896 3.29171 12.6651 3.70099 12.08 4.36799C11.4949 5.03499 11.1965 5.90585 11.2497 6.7915H8.74965C8.80278 5.90585 8.50441 5.03499 7.91933 4.36799C7.33425 3.70099 6.50968 3.29171 5.62465 3.229Z" fill="#A8A8A8"/>
</g>
<defs>
<clipPath id="clip0_123_1007">
<rect width="20" height="20" fill="white"/>
</clipPath>
</defs>
</svg>
