<svg width="20" height="20" viewBox="0 0 20 20" fill="none" xmlns="http://www.w3.org/2000/svg">
<g id="microphone (1) 1" clip-path="url(#clip0_123_1162)">
<g id="01 align center">
<path id="Vector" d="M9.99869 16.6667C11.7662 16.6647 13.4607 15.9617 14.7105 14.7118C15.9603 13.462 16.6634 11.7675 16.6654 10V6.66666C16.6654 4.89855 15.963 3.20286 14.7127 1.95262C13.4625 0.702379 11.7668 0 9.99869 0C8.23058 0 6.53489 0.702379 5.28465 1.95262C4.03441 3.20286 3.33203 4.89855 3.33203 6.66666V10C3.33402 11.7675 4.03703 13.462 5.28684 14.7118C6.53665 15.9617 8.23119 16.6647 9.99869 16.6667ZM4.9987 7.5H8.33203V5.83333H5.0737C5.26956 4.66876 5.87176 3.61126 6.7734 2.8486C7.67504 2.08594 8.81776 1.66746 9.99869 1.66746C11.1796 1.66746 12.3223 2.08594 13.224 2.8486C14.1256 3.61126 14.7278 4.66876 14.9237 5.83333H11.6654V7.5H14.9987V9.16666H11.6654V10.8333H14.9237C14.7278 11.9979 14.1256 13.0554 13.224 13.8181C12.3223 14.5807 11.1796 14.9992 9.99869 14.9992C8.81776 14.9992 7.67504 14.5807 6.7734 13.8181C5.87176 13.0554 5.26956 11.9979 5.0737 10.8333H8.33203V9.16666H4.9987V7.5Z" fill="#A8A8A8"/>
<path id="Vector_2" d="M18.3333 10.8335C18.3311 12.8219 17.5402 14.7283 16.1342 16.1344C14.7281 17.5404 12.8218 18.3313 10.8333 18.3335H9.16666C7.17829 18.3311 5.27204 17.5401 3.86604 16.1341C2.46005 14.7281 1.66909 12.8219 1.66667 10.8335H0C0.00286706 13.2638 0.969558 15.5937 2.68802 17.3122C4.40648 19.0306 6.73639 19.9973 9.16666 20.0002H10.8333C13.2636 19.9973 15.5935 19.0306 17.312 17.3122C19.0304 15.5937 19.9971 13.2638 20 10.8335H18.3333Z" fill="#A8A8A8"/>
</g>
</g>
<defs>
<clipPath id="clip0_123_1162">
<rect width="20" height="20" fill="white"/>
</clipPath>
</defs>
</svg>
