<svg width="19" height="20" viewBox="0 0 19 20" fill="none" xmlns="http://www.w3.org/2000/svg">
<path id="Vector" d="M16.2857 0.982422C17.7828 0.982422 19 2.17074 19 3.63696V16.9097C19 18.3738 17.7828 19.5642 16.2857 19.5642H2.71429C1.21507 19.5642 0 18.3738 0 16.9097V3.63696C0 2.17074 1.21507 0.982422 2.71429 0.982422H16.2857ZM5.42857 8.94604C4.6779 8.94604 4.07143 9.53917 4.07143 10.2733V14.2551C4.07143 14.9893 4.6779 15.5824 5.42857 15.5824C6.17924 15.5824 6.78571 14.9893 6.78571 14.2551V10.2733C6.78571 9.53917 6.17924 8.94604 5.42857 8.94604ZM8.14286 14.2551C8.14286 14.9893 8.74933 15.5824 9.5 15.5824C10.2507 15.5824 10.8571 14.9893 10.8571 14.2551V6.2915C10.8571 5.55736 10.2507 4.96423 9.5 4.96423C8.74933 4.96423 8.14286 5.55736 8.14286 6.2915V14.2551ZM13.5714 11.6006C12.8208 11.6006 12.2143 12.1937 12.2143 12.9279V14.2551C12.2143 14.9893 12.8208 15.5824 13.5714 15.5824C14.3221 15.5824 14.9286 14.9893 14.9286 14.2551V12.9279C14.9286 12.1937 14.3221 11.6006 13.5714 11.6006Z" fill="#3229AD"/>
</svg>
